<?xml version="1.0" standalone="no"?>
<!DOCTYPE svg PUBLIC "-//W3C//DTD SVG 20010904//EN"
 "http://www.w3.org/TR/2001/REC-SVG-20010904/DTD/svg10.dtd">
<svg version="1.0" xmlns="http://www.w3.org/2000/svg"
 width="1308.000000pt" height="1308.000000pt" viewBox="0 0 1308.000000 1308.000000"
 preserveAspectRatio="xMidYMid meet">
<metadata>
Created by potrace 1.11, written by Peter Selinger 2001-2013
</metadata>
<g transform="translate(0.000000,1308.000000) scale(0.100000,-0.100000)"
fill="#000000" stroke="none">
<path d="M6280 13069 c-1899 -72 -3675 -974 -4861 -2469 -579 -730 -986 -1549
-1214 -2445 -483 -1895 -97 -3897 1054 -5475 321 -440 774 -912 1206 -1257
906 -723 1995 -1195 3135 -1357 363 -52 496 -61 940 -61 444 0 577 9 940 61
1839 262 3494 1316 4525 2879 1010 1532 1325 3426 870 5215 -364 1427 -1207
2692 -2395 3594 -956 726 -2101 1173 -3305 1291 -146 14 -597 36 -670 33 -16
-1 -118 -4 -225 -9z m-38 -3151 c119 -55 207 -173 228 -303 6 -37 10 -508 10
-1220 l0 -1160 -395 -220 c-217 -121 -395 -222 -395 -225 0 -3 177 -104 393
-225 l392 -220 3 -2553 2 -2553 -22 6 c-53 16 -294 118 -434 183 -902 419
-1733 1120 -2226 1878 -407 624 -628 1314 -668 2079 -13 250 -13 4149 0 4228
25 152 131 278 273 323 34 10 299 12 1412 11 l1370 -2 57 -27z m3480 0 c117
-55 205 -170 228 -300 7 -39 10 -737 7 -2180 -3 -1933 -5 -2136 -20 -2268
-108 -904 -427 -1644 -999 -2312 l-93 -108 -5 1992 -5 1993 -555 0 -555 0 -5
-2469 -5 -2470 -94 -59 c-147 -91 -369 -213 -535 -292 -137 -67 -408 -183
-463 -200 l-23 -6 0 4164 c0 2755 3 4182 10 4217 28 150 134 272 273 316 34
10 299 12 1412 11 l1370 -2 57 -27z"/>
<path d="M4240 8190 c0 -960 1 -1010 18 -1001 9 6 260 147 557 313 l540 303 3
698 2 697 -560 0 -560 0 0 -1010z"/>
<path d="M4240 5476 l0 -926 51 -113 c112 -249 252 -497 435 -772 176 -265
340 -472 573 -725 l60 -65 0 1450 0 1450 -497 278 c-273 152 -525 293 -559
313 l-63 35 0 -925z"/>
<path d="M7720 8345 l0 -845 560 0 560 0 0 845 0 845 -560 0 -560 0 0 -845z"/>
</g>
</svg>
